<svg width="250" height="180" viewBox="0 0 250 180" fill="none" xmlns="http://www.w3.org/2000/svg">
<g clip-path="url(#clip0_23_1082)">
<path d="M202.322 114.008C202.545 114.028 202.77 113.98 202.965 113.869C203.16 113.758 203.316 113.589 203.412 113.386C203.508 113.184 203.539 112.956 203.502 112.735C203.465 112.514 203.36 112.309 203.202 112.149C203.18 112.038 203.164 111.959 203.141 111.848C203.152 111.825 203.163 111.801 203.174 111.778C203.425 111.255 203.824 110.819 204.322 110.522C204.82 110.226 205.394 110.083 205.973 110.113C206.551 110.142 207.109 110.341 207.574 110.686C208.04 111.031 208.393 111.505 208.59 112.05C209.377 114.225 210.405 116.415 210.578 118.684C210.654 119.687 210.555 120.695 210.286 121.664C212.578 117.222 213.888 112.339 214.128 107.347C214.187 106.094 214.175 104.838 214.094 103.587C214.026 102.56 213.914 101.54 213.756 100.524C212.895 95.0119 210.739 89.783 207.464 85.2663C205.824 84.2698 204.529 82.7944 203.753 81.039C203.472 80.4079 203.284 79.7394 203.194 79.0543C203.382 79.088 203.575 79.1125 203.764 79.1338C203.823 79.1397 203.885 79.1457 203.944 79.1516L203.966 79.1536C204.175 79.1727 204.384 79.1312 204.569 79.0341C204.754 78.937 204.907 78.7884 205.01 78.6063C205.113 78.4242 205.161 78.2162 205.148 78.0076C205.135 77.7989 205.062 77.5983 204.938 77.43C204.861 77.3253 204.784 77.2207 204.706 77.1161C204.589 76.9547 204.469 76.7962 204.351 76.6348C204.338 76.6194 204.325 76.6032 204.313 76.5863C204.178 76.4022 204.043 76.2213 203.908 76.0372C204.188 75.6438 204.556 75.3204 204.981 75.0922C206.455 74.3188 208.407 74.9929 209.383 76.3389C210.362 77.685 210.474 79.5148 210.037 81.1194C209.618 82.4826 208.97 83.7644 208.12 84.9101C208.194 85.0133 208.27 85.1136 208.343 85.2168C209.68 87.1119 210.828 89.1334 211.771 91.2525C211.627 88.9209 212.037 86.5884 212.97 84.4466C213.907 82.4537 215.566 80.8158 217.038 79.1238C218.806 77.0914 222.188 78.1718 222.358 80.8604C222.359 80.8864 222.361 80.9124 222.362 80.9384C222.15 81.0453 221.942 81.1596 221.738 81.2812C221.482 81.4356 221.279 81.6639 221.154 81.936C221.03 82.2081 220.991 82.5114 221.042 82.8062C221.093 83.101 221.232 83.3735 221.441 83.5879C221.649 83.8024 221.918 83.9489 222.211 84.0082L222.241 84.0143C222.133 84.7551 221.968 85.4867 221.749 86.2027C221.118 88.2005 220.08 90.0463 218.702 91.6245C217.324 93.2026 215.635 94.479 213.74 95.3737C213.616 95.4303 213.495 95.487 213.371 95.5405C214.277 98.5479 214.788 101.66 214.892 104.8C214.947 106.651 214.853 108.505 214.609 110.341L214.621 110.276C215.115 108.244 216.295 106.445 217.962 105.183C220.436 103.336 223.836 102.772 226.48 101.318C226.762 101.155 227.084 101.077 227.409 101.091C227.733 101.105 228.047 101.212 228.313 101.399C228.579 101.586 228.786 101.845 228.91 102.145C229.033 102.446 229.068 102.776 229.011 103.096C229.006 103.118 229.002 103.141 228.997 103.164C228.606 103.302 228.225 103.465 227.855 103.65C227.643 103.757 227.435 103.871 227.231 103.993C226.975 104.147 226.771 104.376 226.647 104.648C226.523 104.92 226.483 105.223 226.534 105.518C226.585 105.813 226.724 106.085 226.933 106.3C227.141 106.514 227.41 106.661 227.703 106.72L227.733 106.726C227.755 106.73 227.773 106.734 227.795 106.738C227.067 108.271 226.081 109.668 224.88 110.866C223.398 112.316 221.635 113.447 219.699 114.191C217.764 114.935 215.697 115.275 213.625 115.192L213.622 115.192C212.946 117.609 212.021 119.949 210.861 122.175L202.178 121.77C202.152 121.672 202.128 121.572 202.105 121.474C202.906 121.562 203.715 121.551 204.514 121.442C203.907 120.622 203.299 119.795 202.692 118.975C202.678 118.959 202.666 118.943 202.654 118.926C202.346 118.506 202.035 118.09 201.727 117.67L201.727 117.669C201.767 116.428 201.967 115.198 202.321 114.008L202.322 114.008Z" fill="#F2F2F2"/>
<path d="M27.3704 38.9245C27.1486 38.9589 26.9216 38.9244 26.7201 38.8256C26.5186 38.7267 26.3523 38.5683 26.2438 38.3718C26.1354 38.1753 26.0899 37.9502 26.1137 37.727C26.1374 37.5039 26.2292 37.2934 26.3765 37.1241C26.3921 37.012 26.4033 36.9316 26.4189 36.8195C26.4065 36.7968 26.394 36.7742 26.3815 36.7516C26.0992 36.2456 25.6738 35.8343 25.1586 35.5694C24.6433 35.3044 24.0613 35.1977 23.4856 35.2624C22.9098 35.3272 22.3661 35.5607 21.9226 35.9335C21.4791 36.3064 21.1557 36.8019 20.993 37.3579C20.3423 39.5773 19.4512 41.8265 19.419 44.1018C19.4052 45.1075 19.566 46.1079 19.8941 47.0586C17.332 42.7667 15.7227 37.974 15.1753 33.0055C15.0392 31.7586 14.9729 30.505 14.9768 29.2507C14.9809 28.2224 15.0302 27.1964 15.1247 26.1728C15.6435 20.6183 17.4726 15.2662 20.4616 10.5558C22.037 9.45982 23.2387 7.90722 23.9045 6.10726C24.1463 5.45997 24.293 4.7811 24.3403 4.09177C24.1541 4.13709 23.9637 4.17346 23.7761 4.20639C23.7176 4.21587 23.656 4.22572 23.5975 4.23523L23.5754 4.23864C23.3688 4.27054 23.1573 4.24204 22.9665 4.15656C22.7757 4.07109 22.6137 3.93228 22.4999 3.75686C22.3862 3.58143 22.3256 3.37686 22.3254 3.16779C22.3252 2.95871 22.3854 2.75403 22.4988 2.5784C22.5695 2.46913 22.6402 2.35991 22.711 2.25074C22.818 2.08239 22.9285 1.91681 23.0355 1.74849C23.0482 1.73222 23.06 1.71524 23.0708 1.69762C23.1941 1.50558 23.3176 1.31664 23.4409 1.1246C23.1369 0.749236 22.7504 0.449162 22.3114 0.24777C20.7926 -0.433182 18.8857 0.360258 17.9948 1.764C17.1008 3.16806 17.1027 5.00122 17.6375 6.5758C18.1402 7.91046 18.8664 9.14982 19.7849 10.2408C19.7182 10.3483 19.6481 10.4531 19.5815 10.5607C18.364 12.5347 17.3429 14.6234 16.5329 16.7966C16.5332 14.4606 15.9791 12.1579 14.9159 10.0778C13.8576 8.14666 12.101 6.61433 10.5271 5.01651C8.63662 3.09729 5.32806 4.38449 5.32479 7.07843C5.32476 7.10452 5.32479 7.13058 5.3249 7.15663C5.54304 7.25023 5.75762 7.35142 5.96862 7.4602C6.23389 7.59853 6.45118 7.81375 6.59203 8.07768C6.73288 8.34161 6.79072 8.64193 6.75797 8.9393C6.72523 9.23666 6.60342 9.5172 6.40851 9.74415C6.2136 9.97111 5.95467 10.1339 5.66567 10.2112L5.63607 10.2191C5.78986 10.9519 5.99913 11.6719 6.26207 12.373C7.01569 14.328 8.16505 16.1062 9.63811 17.5962C11.1112 19.0861 12.8761 20.2557 14.8224 21.0316C14.9499 21.0804 15.0744 21.1296 15.2016 21.1753C14.4828 24.2329 14.1647 27.371 14.2552 30.5107C14.3145 32.3624 14.5234 34.2062 14.8799 36.0242L14.8636 35.9602C14.2451 33.9628 12.9563 32.24 11.2148 31.0827C8.63129 29.3925 5.20263 29.0395 2.47376 27.7519C2.18286 27.6069 1.85656 27.5481 1.53334 27.5824C1.21012 27.6168 0.903475 27.7429 0.64956 27.9458C0.395645 28.1487 0.205054 28.42 0.100267 28.7277C-0.00451925 29.0354 -0.019132 29.3666 0.058154 29.6823C0.0640616 29.7047 0.0700311 29.7271 0.0760579 29.7496C0.474356 29.8634 0.865172 30.002 1.24624 30.1644C1.46438 30.258 1.67896 30.3592 1.88996 30.468C2.15523 30.6063 2.37252 30.8215 2.51337 31.0855C2.65422 31.3494 2.71206 31.6497 2.67931 31.9471C2.64657 32.2445 2.52476 32.525 2.32985 32.752C2.13494 32.9789 1.87601 33.1417 1.58701 33.219L1.55739 33.2269C1.53605 33.2323 1.5178 33.2375 1.49649 33.2429C2.31742 34.7281 3.38785 36.0608 4.66091 37.1828C6.23021 38.5378 8.05974 39.5581 10.0373 40.181C12.0149 40.8038 14.0989 41.0162 16.1615 40.8051L16.1646 40.8048C16.9886 43.1753 18.0567 45.4537 19.3517 47.6034L27.993 46.6635C28.0136 46.5641 28.0307 46.462 28.0481 46.3629C27.2537 46.5002 26.4455 46.5397 25.6415 46.4805C26.1971 45.6241 26.7519 44.7614 27.3075 43.905C27.3202 43.8887 27.332 43.8718 27.3427 43.8542C27.6241 43.4162 27.909 42.9809 28.1904 42.5429L28.1905 42.5424C28.0736 41.3063 27.7981 40.0904 27.3706 38.9246L27.3704 38.9245Z" fill="#F2F2F2"/>
<path d="M146.758 35.722C147.185 35.8397 147.582 36.0497 147.92 36.3373C148.258 36.6249 148.528 36.9831 148.713 37.3865C148.897 37.79 148.991 38.229 148.987 38.6726C148.983 39.1162 148.882 39.5536 148.692 39.954L153.329 45.1096L150.883 48.6917L144.437 41.3191C143.785 40.9537 143.291 40.3621 143.046 39.6563C142.802 38.9505 142.825 38.1796 143.111 37.4897C143.397 36.7998 143.926 36.2388 144.598 35.913C145.271 35.5872 146.039 35.5192 146.758 35.722Z" fill="#A0616A"/>
<path d="M190.17 48.3815C189.752 47.7011 189.204 47.1099 188.557 46.6418C187.91 46.1737 187.177 45.838 186.4 45.6539C185.622 45.4697 184.817 45.4408 184.028 45.5687C183.24 45.6967 182.485 45.979 181.806 46.3995L166.555 55.8448L150.105 41.8611L146.012 45.6719L164.185 69.2508L187.805 56.9373C187.254 57.2247 190.836 49.4656 190.17 48.3815Z" fill="#CCCCCC"/>
<path d="M159.958 79.7878C159.96 87.3198 158.478 94.7783 155.596 101.737C152.714 108.696 148.49 115.019 143.164 120.345C137.838 125.671 131.515 129.896 124.556 132.777C117.597 135.659 110.138 137.141 102.606 137.14C70.9322 137.14 45.2544 111.462 45.2544 79.7878C45.2489 73.6267 46.2366 67.505 48.1794 61.6582C51.9936 50.2395 59.3009 40.3087 69.068 33.2702C78.835 26.2316 90.5675 22.4415 102.606 22.4358C112.989 22.4322 123.178 25.2482 132.085 30.5831C140.993 35.9181 148.284 43.5718 153.181 52.7272C154.396 54.986 155.455 57.3248 156.352 59.7273C156.476 60.0619 156.597 60.3964 156.715 60.7342V60.7373C157.241 62.2221 157.704 63.7345 158.104 65.2745C159.339 70.0133 159.962 74.8907 159.958 79.7878Z" fill="#3F3D56"/>
<path d="M96.3316 41.0933C93.7542 39.6995 90.8926 38.9127 87.9649 38.7929C85.0372 38.6732 82.1209 39.2235 79.4383 40.4021C77.0763 41.43 74.5892 43.2741 73.8013 46.604C76.9881 44.7232 81.1133 47.6948 81.9334 52.4618L81.7419 52.5146C81.3088 55.8164 82.2757 59.4112 84.1476 61.4585C84.3934 59.3319 85.7917 57.8846 87.1671 56.9804C88.5424 56.0763 90.0639 55.4195 91.1137 53.8655C92.3582 52.0231 92.6742 49.3305 93.1686 46.8742C93.663 44.4178 94.601 41.7777 96.3316 41.0933Z" fill="white"/>
<path d="M78.4929 69.1903C77.6103 70.5158 76.4314 71.3474 75.3736 72.383C74.319 73.4217 73.3153 74.8236 73.105 76.6238C72.9712 77.7772 73.1783 78.9497 73.1496 80.1159C73.121 81.282 72.7322 82.5948 71.9388 82.8847C70.6866 83.3371 69.7308 81.0112 68.4436 80.8487C67.4208 80.7213 66.5 82.3303 66.7963 83.7259C67.0926 85.1215 68.485 85.7396 69.2847 84.8283C70.008 86.0423 69.4982 88.244 68.4117 88.6167C68.297 89.3814 68.1823 90.143 68.0708 90.9076C65.3242 88.9863 62.5491 87.0332 60.2136 84.2197C57.6161 81.1172 56.005 77.3093 55.5872 73.2846C55.2845 70.0506 55.7337 66.3514 54.249 63.863C53.0605 61.8716 51.0213 61.4319 49.186 61.5562C48.8515 61.5785 48.5138 61.6167 48.1792 61.6581C49.2615 58.4074 50.6362 55.2614 52.2862 52.2588C52.6596 52.0985 53.0066 51.8826 53.3153 51.6183C55.0232 50.1686 55.7815 47.2341 57.1675 45.2045C57.2567 45.0738 57.3491 44.9464 57.4447 44.8221C58.8626 42.9709 60.7616 42.0182 62.5969 41.1325C66.6593 39.1602 70.8396 37.1624 75.1283 37.4364L73.908 37.5543C72.4837 41.5435 71.0584 45.5326 69.632 49.5218C69.4154 50.1335 69.1966 50.7464 68.9757 51.3603C68.1664 53.6288 67.3316 56.044 67.4559 58.5834C67.5291 60.0873 68.0516 61.6932 69.0458 62.2093C69.9729 62.6873 70.9862 62.101 71.8815 61.5211C72.2607 61.2789 72.6366 61.0368 73.0158 60.7914C74.3763 59.9152 75.8834 59.0167 77.3204 59.603C78.6363 60.1383 79.6081 61.9257 79.7929 63.8534C79.9623 65.7273 79.5051 67.6043 78.4929 69.1903Z" fill="white"/>
<path d="M86.5849 96.4255C82.6114 93.9789 78.6379 91.5324 74.6643 89.0858L74.7318 88.9121C72.2612 89.8531 71.2355 94.2446 71.6438 97.836C72.0521 101.427 73.4365 104.638 74.1359 108.137C75.079 112.926 74.723 117.88 73.1051 122.484C78.33 116.622 82.9541 110.25 86.9078 103.465C87.4601 102.609 87.881 101.676 88.1564 100.696C88.4088 99.6535 88.37 98.3999 87.8644 97.5638C87.5392 97.0839 87.0994 96.6926 86.5849 96.4255Z" fill="white"/>
<path d="M70.9024 51.9155C70.4805 52.8641 70.3181 54.1291 70.701 55.1107C71.092 56.1132 71.9187 56.5662 72.6798 56.9434L74.8754 58.0317C75.6058 58.3938 76.3931 58.7595 77.1377 58.4616C78.0358 58.1023 78.6585 56.6943 78.4974 55.3872C78.326 53.9963 77.4492 53.0395 76.6384 52.2248C75.5036 51.0846 74.3689 49.9444 73.2341 48.8042L72.5946 49.5875C71.9029 50.2622 71.3307 51.0493 70.9024 51.9155Z" fill="white"/>
<path d="M148.189 66.7848C149.176 67.0174 150.164 67.25 151.152 67.4826C150.98 70.8186 149.326 73.9061 147.109 75.0244C146.185 75.4896 145.155 75.6616 144.391 76.5315C143.699 77.3217 143.349 78.5515 143.027 79.7272C142.463 81.7792 141.899 83.8311 141.335 85.883C140.73 88.0943 139.952 90.5509 138.378 91.3474C137.027 92.0324 135.482 91.1944 134.443 89.7893C133.405 88.3842 132.771 86.4948 132.156 84.6532C132.194 86.6605 131.26 88.6296 129.938 89.3273C128.613 90.0251 127 89.3942 126.115 87.8362C125.477 86.7178 125.213 85.2426 124.588 84.1083C123.964 82.974 122.654 82.324 121.972 83.3882C121.523 84.0956 121.581 85.1789 121.357 86.0774C121.01 87.4729 119.959 88.3491 118.917 88.4256C117.878 88.5021 116.865 87.9031 115.995 87.0906C114.201 85.4083 112.879 82.7382 112.366 79.7719C112.14 78.4496 112.076 77.0094 112.468 75.7699C112.86 74.5305 113.806 73.5747 114.746 73.8104C115.364 72.5041 114.144 70.7708 113.045 70.9237C111.942 71.0766 111.079 72.2587 110.174 73.1668C109.272 74.0749 108.01 74.7344 107.102 73.8327C107.109 74.6707 106.427 75.2251 105.837 75.155C105.251 75.0881 104.729 74.6166 104.19 74.282C102.11 72.9852 99.4682 73.8455 97.9897 76.2989C98.9138 72.3671 100.268 67.8554 103.107 66.9314C104.267 66.5522 105.532 66.8645 106.628 66.2081C108.568 65.0451 108.96 60.6513 107.284 58.8384C107.497 60.5525 107.456 62.5535 106.551 63.726C105.646 64.8986 103.747 64.1338 103.862 62.4005C103.601 63.5954 102.301 63.777 101.702 62.8593C101.1 61.9417 101.15 60.441 101.577 59.345C102.004 58.2489 102.731 57.4619 103.435 56.7068C104.948 55.085 106.484 53.4441 108.237 52.4245C109.992 51.4049 112.019 51.0608 113.777 52.074C114.705 52.6093 115.52 53.5014 116.467 53.973C117.413 54.4477 118.614 54.3872 119.242 53.2784C119.946 52.0421 119.615 50.2069 119.876 48.6615C120.344 45.931 123.075 44.6533 124.588 46.4567C123.457 46.1667 122.288 47.5049 122.148 49.1268C122.004 50.7485 122.823 52.3863 123.919 52.877C125.761 53.6926 127.564 51.6407 128.957 49.7417C130.41 47.7535 131.865 45.7663 133.322 43.7803C133.554 43.4421 133.816 43.1245 134.102 42.8308C134.559 42.3859 135.167 42.1312 135.804 42.1182C136.442 42.1052 137.06 42.3349 137.534 42.7607C139.006 43.9619 139.697 46.4249 140.905 48.1199C142.657 50.5829 145.28 51.1819 147.72 51.6598C149.54 52.0135 151.36 52.3693 153.182 52.7272C154.396 54.986 155.455 57.3248 156.352 59.7273C153.268 61.0369 150.422 63.4871 148.189 66.7848Z" fill="white"/>
<path d="M154.07 105.122C152.705 107.893 151.117 110.55 149.323 113.065C148.176 112.574 146.943 113.45 145.869 114.272C144.747 115.133 143.399 115.971 142.249 115.187C141.074 114.384 140.694 112.138 141.067 110.357C141.44 108.579 142.37 107.164 143.272 105.819C144.228 104.392 145.251 102.91 146.579 102.356C147.911 101.802 149.622 102.585 150.011 104.478L150.954 104.446C150.425 103.72 150.702 102.216 151.413 101.951C152.232 101.642 152.942 102.767 153.426 103.761C153.643 104.21 153.863 104.663 154.07 105.122Z" fill="white"/>
<path d="M117.95 91.6633C115.922 91.7908 114.317 89.2952 113.25 86.8401C112.183 84.385 111.209 81.5775 109.38 80.3279C108.335 79.6138 107.143 79.5158 106.01 79.1698C104.876 78.8238 103.689 78.1079 103.147 76.6499L101.861 76.1304C100.163 77.0853 98.4425 78.0576 96.9792 79.6116C95.3379 81.355 94.3156 83.5899 94.07 85.9717C93.8243 88.5456 94.7314 91.4157 96.4263 92.3826C97.7656 93.1466 99.3248 92.6651 100.681 93.3645C102.376 94.2384 103.383 96.7769 103.763 99.2833C104.144 101.79 104.048 104.395 104.32 106.929C104.593 109.464 105.344 112.102 106.898 113.401C108.843 115.027 111.698 113.676 112.57 110.717C112.998 109.265 112.984 107.627 113.304 106.121C113.867 103.467 115.389 101.499 116.596 99.322C117.802 97.1454 118.752 94.1892 117.95 91.6633Z" fill="white"/>
<path d="M97.918 65.5898C98.107 65.7638 98.2834 65.9511 98.4459 66.1502C98.614 66.4401 98.6998 66.7703 98.6941 67.1054C98.6884 67.4404 98.5914 67.7675 98.4135 68.0515C98.6577 68.0376 98.8963 67.9732 99.1143 67.8624C99.3324 67.7516 99.525 67.5967 99.6802 67.4077C100.05 66.9863 100.376 66.5278 100.651 66.0396C100.858 65.7024 101.078 65.2466 100.938 64.8461C100.842 64.5728 100.616 64.4562 100.457 64.2507C100.205 63.9249 100.143 63.4075 100.013 62.9603C99.7313 61.9945 99.0574 61.2844 98.326 61.1829L98.4276 61.2023C98.122 61.307 97.9087 61.7922 97.9762 62.2288C98.0377 62.6264 98.2932 62.9565 98.2678 63.362C98.2313 63.9451 97.6485 64.2188 97.6125 64.802C97.6068 65.0945 97.7166 65.3775 97.918 65.5898Z" fill="white"/>
<path d="M94.4448 55.6806C94.4478 55.6798 94.4509 55.6796 94.4539 55.6789C94.5162 55.622 94.5741 55.5604 94.6268 55.4946L94.4448 55.6806Z" fill="#E6E6E6"/>
<path d="M95.0524 58.4178C95.5006 58.1296 95.7509 57.3325 95.6027 56.6653C95.4554 56.0023 94.9342 55.5565 94.4534 55.6789C94.314 55.8203 94.1408 55.9239 93.9503 55.98C93.7598 56.0361 93.5582 56.0429 93.3643 55.9996C93.0671 55.9231 92.7408 55.726 92.483 55.9499C92.3355 56.1172 92.2323 56.3187 92.1828 56.5361C92.0874 56.829 91.992 57.1219 91.8965 57.4148C91.8512 57.5196 91.8394 57.6359 91.8627 57.7477C91.881 57.7925 91.9105 57.8319 91.9484 57.862C91.9863 57.8921 92.0313 57.912 92.079 57.9197C92.6515 58.0885 93.224 58.2572 93.7965 58.426C94.2137 58.549 94.6641 58.6675 95.0524 58.4178Z" fill="white"/>
<path d="M138.271 96.206C138.006 95.7727 137.742 95.3394 137.477 94.9062C137.217 94.4044 136.862 93.9582 136.431 93.5926C136.336 93.5133 136.227 93.4536 136.109 93.4173C135.99 93.3809 135.866 93.3685 135.743 93.3808C135.62 93.3932 135.501 93.4299 135.393 93.489C135.284 93.5481 135.188 93.6283 135.111 93.7248L135.144 93.9723C135.747 94.7291 136.385 95.5697 136.538 96.6929C136.598 97.1357 136.577 97.5939 136.63 98.0386C136.683 98.4833 136.833 98.9445 137.12 99.1363C137.537 99.4146 138.026 99.0042 138.323 98.5033C138.588 98.092 138.707 97.6033 138.661 97.1161C138.595 96.7892 138.462 96.4794 138.271 96.206Z" fill="white"/>
<path d="M150.048 79.6592C150.125 79.1573 150.201 78.6554 150.278 78.1536C150.402 77.6023 150.418 77.0321 150.323 76.4749C150.302 76.3532 150.257 76.237 150.19 76.1331C150.123 76.0293 150.036 75.9398 149.934 75.8701C149.832 75.8003 149.717 75.7517 149.596 75.727C149.475 75.7023 149.35 75.702 149.229 75.7262L149.094 75.9363C149.068 76.9037 149.015 77.9579 148.409 78.9157C148.17 79.2933 147.859 79.6303 147.613 80.0046C147.367 80.3789 147.185 80.8286 147.281 81.1601C147.421 81.6414 148.059 81.6425 148.609 81.4503C149.076 81.3063 149.482 81.0091 149.76 80.6065C149.92 80.3138 150.018 79.9914 150.048 79.6592Z" fill="#E6E6E6"/>
<path d="M142.423 96.7698C142.552 96.3979 142.365 95.9713 142.326 95.5602C142.307 95.0292 142.448 94.5048 142.73 94.0547C143.01 93.6301 143.223 93.1644 143.359 92.6743C143.417 92.4511 143.407 92.2156 143.329 91.9984C143.242 91.8016 143.029 91.7118 142.908 91.8676L143.168 92.0354C142.817 91.9726 142.455 91.9901 142.111 92.0865C141.915 92.1617 141.74 92.2829 141.6 92.4401C141.461 92.5973 141.361 92.7857 141.31 92.9895C141.267 93.3073 141.197 93.6207 141.1 93.9264C140.945 94.2457 140.644 94.3519 140.455 94.6322C140.326 94.8807 140.261 95.1573 140.266 95.4372C140.27 95.717 140.345 95.9913 140.482 96.2354C140.719 96.6346 141.096 96.9313 141.54 97.0678C141.858 97.1819 142.277 97.1879 142.423 96.7698Z" fill="white"/>
<path d="M149.815 99.0002C149.93 99.2994 150.084 99.5821 150.273 99.8409C150.627 100.197 151.108 99.9784 151.538 99.8917C151.927 99.8302 152.326 99.8752 152.692 100.022C153.058 100.169 153.378 100.412 153.617 100.726C153.451 99.8954 153.087 99.117 152.557 98.4561C152.028 97.7952 151.347 97.2711 150.573 96.9278C149.561 96.5152 148.495 96.4753 147.442 96.4382L147.26 96.4848C147.724 97.8335 149.178 97.8033 149.815 99.0002Z" fill="white"/>
<path d="M118.504 101.759L118.507 101.765C118.524 101.731 118.542 101.697 118.559 101.663L118.504 101.759Z" fill="#E6E6E6"/>
<path d="M117.382 103.93C117.138 104.374 116.928 104.836 116.753 105.312C116.523 106.083 116.37 106.875 116.297 107.677C116.24 108.133 116.223 108.715 116.508 108.937C116.59 108.991 116.689 109.014 116.787 109.001C116.884 108.987 116.974 108.939 117.038 108.865C117.197 108.697 117.327 108.504 117.422 108.294C117.984 107.327 118.419 106.293 118.719 105.216C118.992 104.082 118.99 102.747 118.507 101.765C118.132 102.486 117.757 103.208 117.382 103.93Z" fill="white"/>
<path d="M106.563 46.0946C106.741 46.2687 106.966 46.3869 107.211 46.4346C107.455 46.4824 107.709 46.4575 107.939 46.3631C108.417 46.1544 108.855 45.8651 109.234 45.5079C109.548 45.2755 109.814 44.9848 110.019 44.6517C110.131 44.4526 110.203 44.2333 110.231 44.0063C110.259 43.7793 110.241 43.549 110.179 43.3288C110.002 42.8103 109.552 42.6364 109.155 42.5187C108.52 42.3303 107.884 42.1419 107.249 41.9534L107.709 41.5391C107.236 41.2853 106.712 41.7564 106.417 42.3396C106.227 42.7204 106.095 43.1271 106.025 43.5466C105.866 44.462 106.021 45.5521 106.563 46.0946Z" fill="#E6E6E6"/>
<path d="M117.782 42.3284C117.961 42.5258 118.209 42.6477 118.474 42.6693C118.74 42.691 119.004 42.6107 119.213 42.4448C119.392 42.3099 119.541 42.1387 119.65 41.9423C119.759 41.7459 119.826 41.5288 119.845 41.305C119.89 40.8052 119.643 40.2497 119.29 40.2065L119.371 39.7385C118.691 39.6157 117.854 39.5911 117.49 40.4169C117.367 40.7332 117.329 41.0762 117.381 41.4116C117.432 41.7471 117.57 42.0632 117.782 42.3284Z" fill="#E6E6E6"/>
<path d="M116.283 17.4423C112.297 16.9926 108.295 18.1449 105.159 20.6457C102.022 23.1464 100.007 26.7907 99.5577 30.7769C98.6213 39.0777 102.994 57.1032 110.968 64.565C114.722 50.2688 127.877 41.7891 129.618 34.1677C131.478 26.0239 124.584 18.3786 116.283 17.4423Z" fill="#FB388A"/>
<path d="M113.526 35.896C116.25 35.896 118.459 33.6875 118.459 30.9631C118.459 28.2388 116.25 26.0303 113.526 26.0303C110.802 26.0303 108.593 28.2388 108.593 30.9631C108.593 33.6875 110.802 35.896 113.526 35.896Z" fill="white"/>
<path d="M108.339 71.6777C110.124 71.6777 111.57 70.2311 111.57 68.4467C111.57 66.6624 110.124 65.2158 108.339 65.2158C106.555 65.2158 105.108 66.6624 105.108 68.4467C105.108 70.2311 106.555 71.6777 108.339 71.6777Z" fill="#FB388A"/>
<path opacity="0.2" d="M117.608 27.4291C118.163 27.7627 118.647 28.2025 119.032 28.7232C119.418 29.2439 119.697 29.8355 119.853 30.464C120.01 31.0925 120.041 31.7458 119.946 32.3864C119.85 33.0271 119.629 33.6426 119.295 34.1979C118.962 34.7531 118.522 35.2372 118.001 35.6225C117.48 36.0078 116.889 36.2868 116.26 36.4435C114.991 36.76 113.648 36.5592 112.526 35.8854C113.67 36.1397 114.866 35.9789 115.902 35.4316C116.937 34.8843 117.744 33.9864 118.178 32.8985C118.612 31.8105 118.645 30.6037 118.271 29.4939C117.896 28.3841 117.139 27.4438 116.134 26.8413C116.654 26.9565 117.152 27.155 117.608 27.4291Z" fill="#231F20"/>
<path opacity="0.2" d="M129.637 34.1838C127.896 41.8052 114.741 50.2849 110.987 64.5811C110.237 63.8726 109.541 63.1096 108.903 62.2984C113.122 48.8604 125.458 40.695 127.14 33.3313C128.645 26.7407 124.417 20.4772 118.35 17.8313C125.694 19.6775 131.341 26.7208 129.637 34.1838Z" fill="#231F20"/>
<path d="M70.0574 36.6898C67.0639 36.3521 64.0589 37.2174 61.7034 39.0954C59.3479 40.9733 57.8349 43.7101 57.4972 46.7036C56.7941 52.9372 60.0781 66.4737 66.0657 72.0773C68.8849 61.3414 78.764 54.9734 80.0712 49.25C81.468 43.1343 76.291 37.3929 70.0574 36.6898Z" fill="#FB388A"/>
<path d="M67.9866 50.5477C70.0325 50.5477 71.691 48.8892 71.691 46.8433C71.691 44.7974 70.0325 43.1389 67.9866 43.1389C65.9407 43.1389 64.2822 44.7974 64.2822 46.8433C64.2822 48.8892 65.9407 50.5477 67.9866 50.5477Z" fill="white"/>
<path d="M64.0918 77.4185C65.4318 77.4185 66.5181 76.3322 66.5181 74.9922C66.5181 73.6522 65.4318 72.5659 64.0918 72.5659C62.7518 72.5659 61.6655 73.6522 61.6655 74.9922C61.6655 76.3322 62.7518 77.4185 64.0918 77.4185Z" fill="#FB388A"/>
<path opacity="0.2" d="M71.0517 44.1892C71.4687 44.4398 71.8323 44.77 72.1216 45.161C72.4109 45.5521 72.6204 45.9963 72.7381 46.4683C72.8558 46.9403 72.8793 47.4309 72.8074 47.912C72.7355 48.3931 72.5695 48.8554 72.319 49.2723C72.0684 49.6893 71.7382 50.0529 71.3471 50.3422C70.9561 50.6315 70.5119 50.841 70.0399 50.9587C69.5679 51.0764 69.0773 51.0999 68.5962 51.028C68.115 50.9561 67.6528 50.7901 67.2358 50.5396C68.0944 50.7306 68.993 50.6098 69.7707 50.1988C70.5484 49.7878 71.1544 49.1135 71.4803 48.2965C71.8062 47.4795 71.8308 46.5732 71.5495 45.7398C71.2683 44.9064 70.6996 44.2003 69.9453 43.7478C70.3355 43.8343 70.7092 43.9833 71.0517 44.1892Z" fill="#231F20"/>
<path opacity="0.2" d="M80.0854 49.2618C78.7782 54.9853 68.8991 61.3532 66.0798 72.0892C65.5167 71.5571 64.9937 70.9842 64.5151 70.375C67.6831 60.2835 76.9474 54.1515 78.2104 48.6217C79.3408 43.6723 76.1655 38.9687 71.6093 36.9817C77.1246 38.3681 81.3654 43.6574 80.0854 49.2618Z" fill="#231F20"/>
<path d="M186.034 170.884H181.967L180.032 155.195L186.035 155.196L186.034 170.884Z" fill="#A0616A"/>
<path d="M188.222 178.606H185.336L184.821 175.882L183.501 178.606H175.847C175.48 178.606 175.123 178.489 174.827 178.272C174.531 178.054 174.313 177.748 174.204 177.398C174.095 177.048 174.1 176.671 174.22 176.325C174.34 175.978 174.567 175.678 174.869 175.47L180.982 171.248V168.493L187.411 168.877L188.222 178.606Z" fill="#2F2E41"/>
<path d="M170.28 170.884H166.213L164.278 155.195L170.281 155.196L170.28 170.884Z" fill="#A0616A"/>
<path d="M172.469 178.606H169.582L169.067 175.882L167.748 178.606H160.093C159.726 178.606 159.369 178.489 159.074 178.272C158.778 178.054 158.56 177.748 158.451 177.398C158.341 177.048 158.347 176.671 158.467 176.325C158.586 175.978 158.814 175.678 159.116 175.47L165.228 171.248V168.493L171.658 168.877L172.469 178.606Z" fill="#2F2E41"/>
<path d="M154.829 129.463C155.607 130.631 164.074 162.726 164.074 162.726L171.583 163.582L170.691 155.507L169.329 141.216L167.22 131.678C167.22 131.678 174.669 114.725 175.14 113.375L175.474 112.406L177.801 133.526C178.078 134.28 178.198 135.083 178.156 135.885C178.086 137.204 179.409 157.052 179.409 157.052L180.045 164.17L186.478 165.063L189.088 152.747C191.267 148.747 190.018 134.53 189.126 133.207C188.235 131.884 188.589 122.668 188.589 122.668C189.727 122.268 196.514 99.1267 193.119 99.2633C193.337 98.0297 193.508 96.9283 193.508 96.9283L187.616 92.1765L172.871 88.3432L169.15 86.5569C169.15 86.5569 162.506 98.8431 162.572 99.4541C162.664 100.228 162.487 101.01 162.07 101.668L155.362 124.12C155.362 124.12 154.042 128.284 154.829 129.463Z" fill="#2F2E41"/>
<path d="M191.874 49.1235L189.529 44.1428L181.544 44.4497L178.94 49.6312C178.94 49.6312 171.497 58.5208 171.256 61.4113C170.954 65.0468 173.472 82.8643 170.954 81.7094C170.954 81.7094 165.017 88.6774 168.53 88.6774C172.043 88.6774 187.932 98.6519 188.975 99.7736C190.017 100.895 194.671 101.623 194.281 99.2808C193.891 96.9391 191.874 84.2743 191.874 84.2743L197.333 64.36C198.904 60.0606 199.393 55.2379 195.842 52.3498L191.874 49.1235Z" fill="#CCCCCC"/>
<path d="M162.3 34.4642C161.232 34.0403 160.091 33.8309 158.942 33.8479C157.794 33.8649 156.659 34.1081 155.604 34.5635C154.55 35.0189 153.595 35.6776 152.794 36.502C151.994 37.3264 151.364 38.3004 150.94 39.3684C149.157 43.8597 148.862 54.5853 152.179 59.9608C156.445 52.5507 165.076 49.8145 167.204 45.8246C169.479 41.5611 166.792 36.247 162.3 34.4642Z" fill="#FB388A"/>
<path d="M158.709 44.4463C160.285 44.4463 161.562 43.1687 161.562 41.5928C161.562 40.0168 160.285 38.7393 158.709 38.7393C157.133 38.7393 155.855 40.0168 155.855 41.5928C155.855 43.1687 157.133 44.4463 158.709 44.4463Z" fill="white"/>
<path d="M150.123 63.5976C151.155 63.5976 151.992 62.7608 151.992 61.7286C151.992 60.6964 151.155 59.8596 150.123 59.8596C149.091 59.8596 148.254 60.6964 148.254 61.7286C148.254 62.7608 149.091 63.5976 150.123 63.5976Z" fill="#FB388A"/>
<path opacity="0.2" d="M161.523 40.2397C162.046 40.7863 162.331 41.518 162.314 42.2741C162.298 43.0302 161.982 43.7489 161.436 44.2722C160.89 44.7955 160.158 45.0806 159.402 45.0649C158.646 45.0493 157.927 44.7341 157.403 44.1886C158.003 44.5041 158.695 44.596 159.356 44.4477C160.017 44.2994 160.604 43.9207 161.012 43.3793C161.419 42.838 161.621 42.1693 161.58 41.4929C161.539 40.8166 161.259 40.1768 160.79 39.688C161.063 39.8312 161.31 40.0175 161.523 40.2397Z" fill="#231F20"/>
<path opacity="0.2" d="M167.213 45.8365C165.084 49.8265 156.453 52.5626 152.188 59.9727C151.877 59.4634 151.604 58.9318 151.371 58.3822C155.766 51.5217 163.892 48.8366 165.948 44.9816C167.789 41.5312 166.38 37.3931 163.395 34.9951C167.214 37.1406 169.297 41.9295 167.213 45.8365Z" fill="#231F20"/>
<path d="M149.281 61.0849C149.715 60.9954 150.164 61.0022 150.596 61.1048C151.027 61.2075 151.431 61.4036 151.779 61.6792C152.126 61.9548 152.409 62.3033 152.608 62.7C152.806 63.0968 152.915 63.5323 152.927 63.9757L159.401 66.4607L158.85 70.763L149.757 67.1254C149.011 67.0959 148.301 66.7938 147.763 66.2761C147.225 65.7584 146.895 65.0613 146.836 64.3167C146.777 63.5721 146.994 62.8319 147.444 62.2363C147.895 61.6406 148.549 61.231 149.281 61.0849Z" fill="#A0616A"/>
<path d="M194.514 52.2191C193.832 51.8029 193.075 51.5255 192.286 51.4026C191.497 51.2797 190.691 51.3138 189.916 51.5029C189.14 51.692 188.409 52.0325 187.765 52.5047C187.121 52.9769 186.576 53.5716 186.163 54.2547L176.871 69.5992L155.862 64.6192L153.948 69.8739L180.852 82.618L194.478 60.915C196.518 58.0481 197.517 54.0526 194.514 52.2191Z" fill="#CCCCCC"/>
<path d="M194.861 33.4139C194.862 34.8929 194.499 36.3493 193.805 37.6554C193.112 38.9616 192.108 40.0774 190.882 40.9051C189.657 41.7327 188.246 42.2468 186.776 42.4023C185.305 42.5577 183.819 42.3498 182.447 41.7967C181.075 41.2435 179.861 40.3622 178.909 39.23C177.958 38.0977 177.299 36.7493 176.99 35.3029C176.681 33.8565 176.732 32.3565 177.139 30.9345C177.545 29.5125 178.294 28.212 179.321 27.1472L179.364 27.1039C179.436 27.028 179.509 26.9521 179.585 26.8798C179.585 26.8798 179.586 26.8797 179.586 26.8795C179.586 26.8793 179.587 26.8791 179.587 26.8787C179.588 26.8784 179.588 26.878 179.588 26.8776C179.588 26.8771 179.588 26.8766 179.588 26.8762C179.682 26.7894 179.776 26.7027 179.874 26.6196C181.179 25.475 182.787 24.7309 184.505 24.4764C186.222 24.222 187.977 24.4679 189.558 25.1848C191.139 25.9017 192.481 27.0592 193.421 28.5186C194.362 29.9781 194.862 31.6777 194.861 33.4139Z" fill="#2F2E41"/>
<path d="M183.6 43.0807C187.784 43.0807 191.176 39.6887 191.176 35.5045C191.176 31.3202 187.784 27.9282 183.6 27.9282C179.415 27.9282 176.023 31.3202 176.023 35.5045C176.023 39.6887 179.415 43.0807 183.6 43.0807Z" fill="#9E616A"/>
<path d="M191.645 37.6651L190.39 37.4433C189.688 37.3159 189.043 36.9773 188.539 36.4728C188.035 35.9684 187.697 35.3222 187.571 34.6206L186.346 36.6734L186.293 36.6911C183.374 37.6601 180.338 37.3703 177.012 35.8064C176.061 35.3553 175.138 34.8467 174.249 34.2833L174.184 34.2423L174.178 34.1653C174.009 31.7006 174.562 29.6416 175.736 28.3675C176.187 27.8882 176.734 27.5095 177.341 27.2563C177.949 27.0031 178.603 26.8811 179.261 26.8983C179.307 26.8861 179.35 26.8623 179.386 26.8292C179.403 26.8168 179.42 26.8045 179.436 26.7928V26.7801L179.523 26.7391C179.71 26.6513 179.901 26.5671 180.091 26.4902C181.591 25.9098 183.223 25.7643 184.801 26.0702C186.379 26.3761 187.839 27.121 189.013 28.2195C191.347 30.4474 192.417 34.1863 191.677 37.5235L191.645 37.6651Z" fill="#2F2E41"/>
<path d="M207.625 44.12C205.047 42.7893 208.363 37.9596 207.696 35.1358C207.03 32.312 202.232 31.4038 201.926 28.5186C201.621 25.6334 200.902 22.6576 198.998 20.4683C197.781 19.0693 195.988 18.0366 194.143 18.2118C193.518 18.2711 192.914 18.4642 192.371 18.7782C191.828 19.0921 191.359 19.5193 190.996 20.0309C190.633 20.5424 190.384 21.1262 190.267 21.7424C190.15 22.3587 190.167 22.9929 190.317 23.602C189.792 22.8574 188.432 23.0188 188.095 23.8657C187.796 24.6187 188.457 25.5307 189.235 25.5973C190.253 26.8546 191.419 28.1889 193.014 28.4425C193.268 28.5008 193.532 28.5007 193.786 28.442C194.04 28.3834 194.277 28.2678 194.48 28.104C194.855 27.7436 194.885 27.0232 194.44 26.7539C196.444 27.5501 197.619 29.7173 197.917 31.8535C198.214 33.9896 197.802 36.151 197.531 38.2906C197.26 40.4303 197.143 42.681 197.982 44.668C198.974 47.0155 201.256 48.6981 203.746 49.2377C206.237 49.7773 208.889 49.2499 211.143 48.0618C213.398 46.8735 215.277 45.0596 216.813 43.0261C214.168 44.9044 210.508 45.6081 207.625 44.12Z" fill="#2F2E41"/>
<path d="M191.323 37.4544C191.323 37.4544 189.078 29.0772 179.458 27.1436C179.447 27.1401 179.411 27.1256 179.364 27.104C179.335 27.0859 179.299 27.0678 179.263 27.0497C179.371 26.9883 179.476 26.9341 179.584 26.8798L179.586 26.8796L179.587 26.8788L179.588 26.8776L179.588 26.8762C179.682 26.7895 179.776 26.7028 179.873 26.6196L180.148 26.6305C180.148 26.6305 189.801 25.1018 191.323 37.4544Z" fill="#FD6584"/>
<path opacity="0.2" d="M186.298 64.335L180.864 70.6301L171.886 67.9789L181.674 72.4893L186.298 64.335Z" fill="black"/>
<path d="M218.912 179.081L135.371 179.174C135.276 179.174 135.184 179.136 135.117 179.068C135.05 179 135.012 178.909 135.012 178.813C135.012 178.718 135.05 178.626 135.117 178.559C135.184 178.491 135.276 178.453 135.371 178.452L218.912 178.359C219.007 178.359 219.099 178.397 219.167 178.465C219.234 178.533 219.272 178.624 219.272 178.72C219.272 178.816 219.234 178.908 219.167 178.975C219.099 179.043 219.007 179.081 218.912 179.081Z" fill="#CACACA"/>
<path d="M222.579 123.022C218.667 123.022 214.379 122.874 209.716 122.578C185.597 121.047 154.355 115.722 121.745 107.585C89.1354 99.4473 59.0542 89.4696 37.0428 79.4901C26.3204 74.6286 18.091 70.0268 12.5835 65.8124C6.75253 61.3507 4.20197 57.4617 5.0024 54.2537C6.56202 48.0041 20.3717 46.6368 31.6819 46.5903L31.6858 47.4992C16.1538 47.563 6.99071 50.04 5.88436 54.4739C4.47505 60.121 15.9687 68.9372 37.4181 78.6623C59.3811 88.6199 89.407 98.5784 121.965 106.703C154.523 114.827 185.707 120.143 209.774 121.671C233.277 123.164 247.565 120.781 248.975 115.134C250.145 110.445 242.431 103.538 227.256 95.6849L227.674 94.8778C238.7 100.584 251.5 108.769 249.857 115.354C249.056 118.562 244.977 120.797 237.734 121.996C233.605 122.679 228.533 123.022 222.579 123.022Z" fill="#FB388A"/>
</g>
<defs>
<clipPath id="clip0_23_1082">
<rect width="250" height="179.174" fill="white"/>
</clipPath>
</defs>
</svg>
