<svg width="400" height="303" viewBox="0 0 400 303" fill="none" xmlns="http://www.w3.org/2000/svg">
<g clip-path="url(#clip0_23_1034)">
<path d="M260.779 124.094C259.905 124.22 259.014 124.153 258.169 123.898C257.324 123.642 256.545 123.205 255.887 122.616C255.229 122.027 254.708 121.301 254.361 120.489C254.014 119.678 253.849 118.8 253.877 117.917L233.84 110.217L242.913 103.727L260.549 112.034C262.029 112.181 263.403 112.866 264.412 113.958C265.421 115.051 265.993 116.475 266.022 117.962C266.05 119.449 265.532 120.894 264.565 122.025C263.599 123.155 262.252 123.891 260.779 124.094L260.779 124.094Z" fill="#FFB7B7"/>
<path d="M249.329 118.57L252.458 107.535L252.304 107.43L222.999 87.5228L197.667 62.1047L182.91 68.0004L183.879 72.671L183.943 72.7284L217.623 102.896L217.654 102.911L249.329 118.57Z" fill="#E6E7E8"/>
<path d="M219.308 143.777L173.955 137.419L177.947 109.591H211.337L219.308 143.777Z" fill="#FFB6B6"/>
<path d="M142.247 280.047L151.55 282.209L164.316 247.353L150.586 244.163L142.247 280.047Z" fill="#FFB6B6"/>
<path d="M133.59 295.025L140.262 296.575L142.917 290.553L144.503 297.561L162.198 301.673C163.046 301.87 163.935 301.791 164.735 301.447C165.535 301.103 166.204 300.513 166.645 299.762C167.086 299.01 167.275 298.138 167.184 297.272C167.094 296.406 166.729 295.591 166.143 294.947L154.28 281.904L155.76 275.536L140.691 272.969L133.59 295.025Z" fill="#2F2E41"/>
<path d="M199.651 285.231H209.202L213.747 248.391H199.651V285.231Z" fill="#FFB6B6"/>
<path d="M194.61 301.78H201.459L202.682 295.313L205.813 301.78H223.98C224.85 301.78 225.698 301.502 226.4 300.986C227.101 300.47 227.619 299.743 227.879 298.912C228.138 298.08 228.124 297.188 227.84 296.365C227.556 295.541 227.017 294.83 226.3 294.336L211.793 284.317V277.779L196.534 278.69L194.61 301.78Z" fill="#2F2E41"/>
<path d="M173.382 132.698L217.735 129.169C230.824 159.743 222.501 208.55 212.443 263.493L198.177 265.338L197.071 177.051L161.308 259.184L146.44 258.424L173.382 132.698Z" fill="#2F2E41"/>
<path d="M199.2 52.1885V37.1831C199.201 34.5418 198.682 31.9261 197.672 29.4855C196.662 27.0448 195.181 24.8271 193.314 22.9589C191.447 21.0907 189.23 19.6088 186.79 18.5977C184.349 17.5866 181.734 17.0662 179.093 17.0662C176.451 17.0662 173.836 17.5866 171.396 18.5977C168.956 19.6088 166.739 21.0907 164.871 22.9589C163.004 24.8271 161.523 27.0448 160.513 29.4855C159.504 31.9261 158.984 34.5418 158.986 37.1831C155.442 44.5678 157.659 48.0788 158.986 52.1885C158.987 52.9041 159.272 53.5901 159.778 54.0961C160.284 54.6022 160.97 54.887 161.686 54.8881H196.498C197.214 54.8873 197.901 54.6026 198.407 54.0966C198.913 53.5905 199.198 52.9043 199.2 52.1885Z" fill="#2F2E41"/>
<path d="M184.055 54.6618C192.196 54.6618 198.796 48.0617 198.796 39.92C198.796 31.7783 192.196 25.1782 184.055 25.1782C175.913 25.1782 169.313 31.7783 169.313 39.92C169.313 48.0617 175.913 54.6618 184.055 54.6618Z" fill="#FFB7B7"/>
<path d="M203.956 38.383C203.951 34.1662 202.274 30.1234 199.292 27.1416C196.31 24.1598 192.268 22.4825 188.051 22.4778H185.05C180.833 22.4825 176.79 24.1598 173.808 27.1416C170.826 30.1234 169.149 34.1662 169.144 38.383V38.6833C171.392 40.2199 173.526 40.4446 175.487 38.6833L177.65 32.6262L178.082 38.6832H181.361L182.453 35.6274L182.672 38.6833C187.1 42.4542 195.472 40.6471 203.956 38.6833L203.956 38.383Z" fill="#2F2E41"/>
<path d="M175.459 117.724L212.992 116.296L215.091 91.7413C216.708 87.2469 216.735 83.385 215.168 80.2713C213.821 77.712 211.557 75.7554 208.83 74.7928L200.617 64.8732C199.56 63.5983 198.234 62.574 196.733 61.8743C195.232 61.1746 193.595 60.8171 191.939 60.8275L170.598 60.9734C170.084 60.6642 166.964 59.0785 160.811 61.7448C154.136 64.6373 155.686 74.6868 155.703 74.7877L155.718 74.8821L155.792 74.9464L169.986 86.9024L175.459 117.724Z" fill="#E6E7E8"/>
<path d="M0.629734 302.41H377.498C377.665 302.41 377.825 302.343 377.944 302.225C378.062 302.107 378.128 301.947 378.128 301.78C378.128 301.613 378.062 301.453 377.944 301.335C377.825 301.216 377.665 301.15 377.498 301.15H0.629734C0.462719 301.15 0.302547 301.216 0.184449 301.335C0.0663523 301.453 0 301.613 0 301.78C0 301.947 0.0663523 302.107 0.184449 302.225C0.302547 302.343 0.462719 302.41 0.629734 302.41Z" fill="#CCCCCC"/>
<path d="M275.034 153.365C275.005 167.669 269.627 181.446 259.957 191.986C250.286 202.527 237.022 209.068 222.773 210.325C208.523 211.581 194.319 207.462 182.953 198.777C171.587 190.092 163.88 177.47 161.349 163.391C158.818 149.312 161.645 134.795 169.274 122.695C176.903 110.594 188.783 101.786 202.577 98.0002C216.372 94.2147 231.084 95.7264 243.82 102.238C256.557 108.75 266.397 119.79 271.406 133.189C271.531 133.526 271.653 133.862 271.771 134.202V134.205C272.3 135.698 272.766 137.219 273.169 138.768C274.411 143.534 275.038 148.439 275.034 153.365Z" fill="#3F3D56"/>
<path d="M211.042 114.448C208.45 113.047 205.572 112.255 202.628 112.135C199.683 112.014 196.75 112.568 194.052 113.753C191.677 114.787 189.176 116.642 188.383 119.991C191.588 118.099 195.737 121.088 196.562 125.882L196.369 125.935C195.934 129.256 196.906 132.871 198.789 134.93C198.929 134.001 199.274 133.115 199.799 132.336C200.324 131.557 201.017 130.905 201.825 130.426C203.209 129.517 204.739 128.857 205.795 127.294C207.046 125.441 207.364 122.733 207.861 120.262C208.359 117.792 209.302 115.137 211.042 114.448Z" fill="#FB388A"/>
<path d="M193.102 142.706C192.214 144.039 191.029 144.876 189.965 145.917C188.736 147.034 187.931 148.541 187.683 150.182C187.548 151.342 187.757 152.522 187.728 153.695C187.699 154.867 187.308 156.188 186.51 156.479C185.251 156.934 184.29 154.595 182.995 154.432C181.966 154.303 181.04 155.922 181.338 157.325C181.636 158.729 183.037 159.35 183.841 158.434C184.568 159.655 184.056 161.869 182.963 162.244C182.847 163.013 182.732 163.779 182.62 164.548C179.858 162.616 177.067 160.651 174.718 157.822C172.105 154.702 170.485 150.872 170.065 146.824C169.76 143.572 170.212 139.851 168.719 137.349C167.524 135.346 165.473 134.904 163.627 135.029C163.291 135.051 162.951 135.089 162.615 135.131C163.703 131.862 165.086 128.698 166.745 125.678C167.121 125.517 167.47 125.299 167.78 125.034C169.498 123.576 170.26 120.624 171.654 118.583C171.744 118.452 171.837 118.324 171.933 118.199C173.359 116.337 175.269 115.379 177.115 114.488C181.2 112.504 185.405 110.495 189.718 110.771L188.491 110.889C187.058 114.901 185.625 118.913 184.19 122.925C183.972 123.54 183.752 124.157 183.53 124.774C182.716 127.056 181.877 129.485 182.002 132.039C182.075 133.551 182.601 135.166 183.601 135.685C184.533 136.166 185.552 135.576 186.452 134.993C186.834 134.75 187.212 134.506 187.593 134.259C188.962 133.378 190.477 132.474 191.923 133.064C193.246 133.602 194.223 135.4 194.409 137.339C194.58 139.223 194.12 141.111 193.102 142.706Z" fill="#FB388A"/>
<path d="M201.24 170.097C197.243 167.637 193.247 165.176 189.251 162.716L189.319 162.541C186.834 163.487 185.802 167.904 186.213 171.516C186.624 175.128 188.016 178.357 188.719 181.876C189.668 186.692 189.31 191.675 187.683 196.306C192.937 190.409 197.588 184.001 201.564 177.177C202.12 176.317 202.543 175.378 202.82 174.393C203.113 173.342 203.009 172.22 202.526 171.242C202.199 170.76 201.757 170.366 201.24 170.097Z" fill="#FB388A"/>
<path d="M185.468 125.332C184.999 126.34 184.926 127.487 185.265 128.546C185.66 129.399 186.375 130.061 187.255 130.389L189.464 131.484C190.198 131.848 190.99 132.216 191.739 131.916C192.642 131.555 193.268 130.139 193.106 128.824C192.934 127.425 192.052 126.463 191.237 125.644C190.095 124.497 188.954 123.35 187.813 122.203L187.17 122.991C186.474 123.67 185.899 124.461 185.468 125.332Z" fill="#FB388A"/>
<path d="M263.196 140.287C264.19 140.521 265.183 140.755 266.177 140.989C266.003 144.344 264.34 147.449 262.11 148.574C261.181 149.042 260.146 149.215 259.377 150.09C258.681 150.884 258.329 152.121 258.005 153.304C257.438 155.367 256.871 157.431 256.304 159.495C255.695 161.719 254.913 164.189 253.33 164.99C251.971 165.679 250.417 164.837 249.372 163.423C248.328 162.01 247.69 160.11 247.071 158.258C247.11 160.277 246.171 162.257 244.841 162.959C243.508 163.66 241.887 163.026 240.996 161.459C240.355 160.334 240.089 158.851 239.461 157.71C238.833 156.569 237.516 155.915 236.83 156.986C236.378 157.697 236.436 158.787 236.211 159.69C236.099 160.29 235.801 160.84 235.362 161.263C234.922 161.687 234.361 161.962 233.757 162.052C233.202 162.039 232.655 161.914 232.15 161.683C231.644 161.452 231.191 161.121 230.818 160.709C228.856 158.702 227.579 156.126 227.169 153.349C226.891 152.017 226.926 150.639 227.271 149.324C227.665 148.077 228.617 147.116 229.562 147.353C230.184 146.039 228.957 144.296 227.851 144.45C226.742 144.604 225.874 145.792 224.964 146.706C224.057 147.619 222.788 148.282 221.875 147.375C221.895 147.707 221.783 148.033 221.563 148.282C221.343 148.531 221.033 148.683 220.701 148.703C220.668 148.705 220.635 148.706 220.603 148.705C219.995 148.531 219.431 148.232 218.946 147.827C216.853 146.523 214.197 147.388 212.71 149.856C213.639 145.901 215.001 141.364 217.856 140.435C219.023 140.053 220.295 140.367 221.397 139.707C223.349 138.538 223.743 134.118 222.057 132.295C222.272 134.019 222.23 136.032 221.32 137.211C220.41 138.39 218.5 137.621 218.616 135.878C218.59 136.123 218.487 136.354 218.322 136.537C218.157 136.72 217.938 136.846 217.697 136.897C217.456 136.949 217.205 136.922 216.979 136.822C216.754 136.722 216.567 136.553 216.443 136.339C215.838 135.416 215.889 133.907 216.318 132.805C216.761 131.806 217.396 130.905 218.186 130.151C219.709 128.52 221.253 126.87 223.016 125.845C224.781 124.819 226.819 124.473 228.588 125.492C229.521 126.03 230.341 126.928 231.293 127.402C231.516 127.541 231.765 127.634 232.025 127.677C232.285 127.719 232.55 127.71 232.806 127.65C233.063 127.59 233.305 127.48 233.518 127.327C233.732 127.173 233.914 126.979 234.052 126.756C234.063 126.738 234.074 126.721 234.084 126.703C234.792 125.46 234.459 123.614 234.722 122.06C235.193 119.314 237.939 118.029 239.461 119.843C238.323 119.551 237.147 120.897 237.006 122.528C236.862 124.159 237.686 125.806 238.788 126.3C240.64 127.12 242.454 125.056 243.854 123.146C245.315 121.147 246.779 119.148 248.244 117.151C248.478 116.811 248.741 116.491 249.029 116.196C249.488 115.749 250.1 115.492 250.741 115.479C251.382 115.466 252.004 115.697 252.481 116.125C253.961 117.334 254.657 119.811 255.871 121.515C257.633 123.992 260.271 124.595 262.725 125.076C264.555 125.431 266.386 125.789 268.218 126.149C269.439 128.421 270.504 130.773 271.406 133.189C268.047 134.721 265.198 137.184 263.196 140.287Z" fill="#FB388A"/>
<path d="M273.169 138.768C272.793 139.875 272.588 141.032 272.56 142.2C270.99 140.284 270.74 136.692 271.772 134.205C272.3 135.698 272.766 137.219 273.169 138.768Z" fill="#FB388A"/>
<path d="M269.112 178.843C267.739 181.631 266.142 184.303 264.337 186.832C263.183 186.338 261.943 187.22 260.863 188.046C259.735 188.912 258.38 189.754 257.223 188.966C256.041 188.159 255.659 185.899 256.034 184.108C256.465 182.456 257.219 180.905 258.252 179.545C259.213 178.109 260.242 176.619 261.578 176.062C262.917 175.504 264.638 176.292 265.029 178.196L265.978 178.164C265.446 177.433 265.725 175.921 266.439 175.655C267.263 175.344 267.977 176.475 268.464 177.475C268.682 177.927 268.903 178.382 269.112 178.843Z" fill="#FB388A"/>
<path d="M232.784 165.308C230.745 165.436 229.13 162.926 228.057 160.457C226.984 157.988 226.005 155.164 224.165 153.908C223.114 153.189 221.916 153.091 220.776 152.743C220.129 152.58 219.531 152.264 219.03 151.824C218.529 151.383 218.141 150.829 217.897 150.208L216.604 149.686C214.795 150.59 213.138 151.772 211.694 153.187C210.043 154.941 209.015 157.188 208.768 159.584C208.521 162.172 209.433 165.059 211.138 166.031C212.484 166.8 214.053 166.315 215.417 167.019C217.122 167.898 218.134 170.451 218.517 172.972C218.9 175.492 218.803 178.112 219.077 180.661C219.351 183.211 220.106 185.864 221.669 187.17C223.626 188.805 226.496 187.446 227.374 184.47C227.804 183.011 227.789 181.363 228.112 179.848C228.679 177.179 230.209 175.199 231.422 173.01C232.636 170.821 233.591 167.848 232.784 165.308Z" fill="#FB388A"/>
<path d="M212.638 139.085C212.828 139.26 213.005 139.449 213.169 139.649C213.338 139.94 213.424 140.273 213.418 140.61C213.413 140.946 213.315 141.275 213.136 141.561C213.382 141.547 213.622 141.482 213.841 141.371C214.06 141.259 214.254 141.104 214.41 140.914C214.782 140.49 215.11 140.029 215.387 139.538C215.517 139.369 215.611 139.175 215.66 138.968C215.71 138.762 215.715 138.546 215.675 138.337C215.579 138.062 215.351 137.945 215.191 137.738C214.97 137.334 214.819 136.895 214.744 136.441C214.656 136.014 214.45 135.621 214.151 135.306C213.851 134.99 213.469 134.764 213.048 134.653L213.15 134.673C212.976 134.776 212.839 134.931 212.758 135.116C212.676 135.301 212.655 135.507 212.696 135.705C212.758 136.105 213.015 136.437 212.99 136.845C212.953 137.431 212.367 137.706 212.331 138.293C212.325 138.587 212.435 138.872 212.638 139.085Z" fill="#FB388A"/>
<path d="M209.145 129.119L209.154 129.117C209.217 129.06 209.275 128.998 209.328 128.932L209.145 129.119Z" fill="#FB388A"/>
<path d="M209.756 131.872C210.001 131.657 210.182 131.379 210.28 131.068C210.377 130.758 210.388 130.426 210.31 130.11C210.161 129.443 209.637 128.994 209.154 129.118C209.013 129.26 208.839 129.364 208.648 129.42C208.456 129.477 208.253 129.484 208.058 129.44C207.759 129.363 207.431 129.165 207.172 129.39C207.024 129.558 206.92 129.761 206.87 129.98C206.774 130.274 206.678 130.569 206.582 130.863C206.537 130.969 206.525 131.086 206.548 131.198C206.566 131.243 206.596 131.283 206.634 131.313C206.672 131.343 206.718 131.363 206.766 131.371C207.341 131.541 207.917 131.711 208.493 131.88C208.691 131.972 208.907 132.018 209.125 132.017C209.344 132.015 209.559 131.966 209.756 131.872Z" fill="#FB388A"/>
<path d="M253.222 169.877C252.956 169.441 252.69 169.005 252.424 168.569C252.162 168.065 251.805 167.616 251.372 167.248C251.278 167.17 251.169 167.11 251.053 167.074C250.936 167.037 250.813 167.024 250.691 167.034C250.569 167.045 250.45 167.08 250.342 167.136C250.233 167.193 250.137 167.271 250.058 167.364L250.044 167.381L250.077 167.63C250.79 168.394 251.275 169.342 251.479 170.366C251.54 170.812 251.519 171.273 251.572 171.72C251.578 171.927 251.624 172.132 251.709 172.321C251.793 172.51 251.914 172.681 252.065 172.824C252.484 173.104 252.976 172.691 253.275 172.187C253.541 171.774 253.661 171.282 253.614 170.792C253.548 170.463 253.414 170.152 253.222 169.877Z" fill="#FB388A"/>
<path d="M257.397 170.444C257.448 170.036 257.415 169.622 257.3 169.227C257.281 168.693 257.422 168.166 257.706 167.713C257.988 167.286 258.202 166.818 258.34 166.325C258.398 166.1 258.387 165.864 258.309 165.645C258.221 165.447 258.008 165.357 257.885 165.514L258.147 165.682C257.794 165.619 257.43 165.637 257.084 165.734C256.887 165.809 256.711 165.931 256.57 166.089C256.43 166.247 256.33 166.437 256.279 166.642C256.235 166.961 256.165 167.277 256.067 167.584C255.911 167.905 255.609 168.012 255.419 168.294C255.289 168.544 255.224 168.822 255.228 169.104C255.233 169.385 255.308 169.661 255.445 169.906C255.684 170.308 256.063 170.606 256.51 170.744C256.83 170.858 257.251 170.864 257.397 170.444Z" fill="#FB388A"/>
<path d="M264.832 172.687C264.948 172.988 265.103 173.272 265.293 173.532C265.649 173.891 266.133 173.671 266.565 173.584C266.956 173.522 267.358 173.567 267.726 173.715C268.094 173.862 268.415 174.107 268.656 174.422C268.488 173.587 268.123 172.804 267.59 172.14C267.057 171.475 266.373 170.948 265.594 170.603C264.582 170.252 263.516 170.086 262.446 170.11L262.263 170.157C262.729 171.513 264.192 171.483 264.832 172.687Z" fill="#FB388A"/>
<path d="M233.342 175.461L233.344 175.467L233.398 175.365L233.342 175.461Z" fill="#FB388A"/>
<path d="M232.214 177.644C231.968 178.091 231.756 178.556 231.581 179.034C231.349 179.81 231.195 180.607 231.122 181.413C231.065 181.871 231.047 182.457 231.335 182.68C231.417 182.735 231.517 182.758 231.615 182.744C231.713 182.731 231.803 182.683 231.868 182.608C232.027 182.439 232.158 182.245 232.254 182.034C232.818 181.061 233.257 180.021 233.558 178.938C233.873 177.789 233.798 176.569 233.344 175.467C232.968 176.193 232.591 176.919 232.214 177.644Z" fill="#FB388A"/>
<path d="M221.332 119.478C221.512 119.653 221.738 119.772 221.984 119.82C222.23 119.868 222.485 119.843 222.716 119.748C223.197 119.538 223.637 119.247 224.019 118.888C224.335 118.654 224.603 118.362 224.808 118.027C224.921 117.827 224.994 117.606 225.021 117.378C225.049 117.15 225.031 116.918 224.969 116.697C224.881 116.484 224.74 116.298 224.56 116.156C224.38 116.013 224.166 115.919 223.939 115.882C223.3 115.692 222.661 115.503 222.022 115.313L222.485 114.897C222.009 114.641 221.483 115.115 221.185 115.702C220.995 116.085 220.862 116.494 220.791 116.916C220.69 117.357 220.686 117.814 220.779 118.257C220.873 118.699 221.062 119.116 221.332 119.478Z" fill="#FB388A"/>
<path d="M232.615 115.691C232.796 115.889 233.044 116.012 233.312 116.033C233.579 116.055 233.844 115.974 234.054 115.808C234.235 115.672 234.385 115.5 234.495 115.302C234.604 115.105 234.671 114.886 234.691 114.661C234.736 114.159 234.487 113.6 234.132 113.556L234.214 113.086C233.53 112.962 232.688 112.938 232.322 113.768C232.198 114.086 232.16 114.431 232.212 114.769C232.263 115.106 232.402 115.424 232.615 115.691Z" fill="#FB388A"/>
<path d="M165.258 166.061C164.601 165.471 164.082 164.744 163.736 163.932C163.391 163.119 163.227 162.241 163.257 161.359C163.288 160.476 163.511 159.611 163.912 158.824C164.312 158.038 164.881 157.348 165.576 156.805L158.645 136.489L169.444 139.294L174.365 158.155C175.201 159.385 175.557 160.879 175.365 162.354C175.173 163.829 174.447 165.182 173.324 166.157C172.201 167.131 170.759 167.66 169.272 167.643C167.784 167.625 166.355 167.063 165.256 166.062L165.258 166.061Z" fill="#FFB7B7"/>
<path d="M162.162 153.732L172.639 149.063L169.119 113.624L172.398 77.8885L158.409 70.3389L155.445 74.076V74.1609L153.874 119.349L153.883 119.383L162.162 153.732Z" fill="#E6E7E8"/>
<path d="M322.669 259.338C316.745 256.614 310.355 253.404 303.498 249.709C268.037 230.592 224.432 200.77 180.713 165.736C136.995 130.703 98.3878 94.6427 72.0029 64.2002C59.1501 49.3704 49.892 36.6702 44.4863 26.4521C38.7628 15.6343 37.6085 7.96834 41.0548 3.66752C47.7692 -4.71105 69.6353 2.83564 86.7963 10.642L86.1692 12.0211C62.6026 1.30083 47.0005 -1.32924 42.2372 4.61506C36.1701 12.1858 47.4367 33.5419 73.1478 63.2078C99.4746 93.5836 138.012 129.576 181.661 164.554C225.31 199.532 268.835 229.3 304.217 248.375C338.771 267.004 362.07 273.347 368.137 265.776C373.175 259.49 366.304 243.657 348.791 221.195L349.985 220.264C362.71 236.585 376.395 257.894 369.32 266.723C365.873 271.024 358.14 271.567 346.335 268.339C339.606 266.498 331.686 263.485 322.669 259.338Z" fill="#FB388A"/>
<path d="M95.8105 157.187C79.4771 149.677 64.5505 142.134 51.477 134.752C34.3889 125.102 21.402 116.251 12.8773 108.443C3.85195 100.177 0.189005 93.3446 1.9902 88.1358C5.49858 77.9888 28.6293 77.7499 47.4158 79.3364L47.2881 80.8464C21.4896 78.6675 5.91106 81.432 3.42171 88.6313C0.251236 97.8004 18.0382 114.129 52.2219 133.432C87.2244 153.197 135.614 174.149 188.478 192.427C241.341 210.707 292.338 224.121 332.073 230.199C370.878 236.135 394.953 234.28 398.123 225.111C400.756 217.498 388.965 204.895 364.923 189.623L365.735 188.344C383.204 199.441 403.252 214.914 399.555 225.606C397.754 230.815 390.653 233.925 378.449 234.851C366.923 235.725 351.242 234.664 331.844 231.696C292.021 225.605 240.93 212.168 187.983 193.86C154.768 182.374 123.303 169.83 95.8105 157.187Z" fill="#FB388A"/>
<path d="M120.591 80.0847C125.467 80.0847 129.419 76.1319 129.419 71.2559C129.419 66.3798 125.467 62.427 120.591 62.427C115.715 62.427 111.762 66.3798 111.762 71.2559C111.762 76.1319 115.715 80.0847 120.591 80.0847Z" fill="#E6E6E6"/>
<path d="M294.615 187.846C297.6 187.846 300.02 185.426 300.02 182.441C300.02 179.456 297.6 177.037 294.615 177.037C291.63 177.037 289.21 179.456 289.21 182.441C289.21 185.426 291.63 187.846 294.615 187.846Z" fill="#FF6584"/>
<path d="M30.2881 235.288C35.1641 235.288 39.117 231.335 39.117 226.459C39.117 221.583 35.1641 217.63 30.2881 217.63C25.412 217.63 21.4592 221.583 21.4592 226.459C21.4592 231.335 25.412 235.288 30.2881 235.288Z" fill="#E6E6E6"/>
</g>
<defs>
<clipPath id="clip0_23_1034">
<rect width="400" height="302.41" fill="white"/>
</clipPath>
</defs>
</svg>
